<?plantuml 1.2026.1?><svg xmlns="http://www.w3.org/2000/svg" xmlns:xlink="http://www.w3.org/1999/xlink" contentStyleType="text/css" data-diagram-type="DESCRIPTION" height="431px" preserveAspectRatio="none" style="width:796px;height:431px;background:#FFFFFF;" version="1.1" viewBox="0 0 796 431" width="796px" zoomAndPan="magnify"><defs/><g><!--cluster UserGroups--><g class="cluster" data-qualified-name="UserGroups" data-source-line="3" id="ent0002"><path d="M136.38,55.5 L229.8155,55.5 A3.75,3.75 0 0 1 232.3155,58 L239.3155,77.7969 L339.38,77.7969 A2.5,2.5 0 0 1 341.88,80.2969 L341.88,412 A2.5,2.5 0 0 1 339.38,414.5 L136.38,414.5 A2.5,2.5 0 0 1 133.88,412 L133.88,58 A2.5,2.5 0 0 1 136.38,55.5" fill="none" style="stroke:#000000;stroke-width:1.5;"/><line style="stroke:#000000;stroke-width:1.5;" x1="133.88" x2="239.3155" y1="77.7969" y2="77.7969"/><text fill="#000000" font-family="sans-serif" font-size="14" font-weight="bold" lengthAdjust="spacing" textLength="92.4355" x="137.88" y="70.4951">UserGroups</text></g><!--cluster UsecaseGroups--><g class="cluster" data-qualified-name="UsecaseGroups" data-source-line="14" id="ent0006"><path d="M448.38,75.5 L570.4855,75.5 A3.75,3.75 0 0 1 572.9855,78 L579.9855,97.7969 L787.38,97.7969 A2.5,2.5 0 0 1 789.88,100.2969 L789.88,415 A2.5,2.5 0 0 1 787.38,417.5 L448.38,417.5 A2.5,2.5 0 0 1 445.88,415 L445.88,78 A2.5,2.5 0 0 1 448.38,75.5" fill="none" style="stroke:#000000;stroke-width:1.5;"/><line style="stroke:#000000;stroke-width:1.5;" x1="445.88" x2="579.9855" y1="97.7969" y2="97.7969"/><text fill="#000000" font-family="sans-serif" font-size="14" font-weight="bold" lengthAdjust="spacing" textLength="121.1055" x="449.88" y="90.4951">UsecaseGroups</text></g><!--entity at--><g class="entity" data-qualified-name="UserGroups.at" data-source-line="5" id="ent0003"><ellipse cx="237.962" cy="107" fill="#F1F1F1" rx="8" ry="8" style="stroke:#181818;stroke-width:0.5;"/><path d="M237.962,115 L237.962,142 M224.962,123 L250.962,123 M237.962,142 L224.962,157 M237.962,142 L250.962,157" fill="none" style="stroke:#181818;stroke-width:0.5;"/><text fill="#000000" font-family="sans-serif" font-size="14" lengthAdjust="spacing" textLength="77.1641" x="199.38" y="171.4951">Attendants</text></g><!--entity us--><g class="entity" data-qualified-name="UserGroups.us" data-source-line="8" id="ent0004"><ellipse cx="237.8224" cy="226.5" fill="#F1F1F1" rx="16" ry="16" style="stroke:#181818;stroke-width:0.5;"/><path d="M237.8224,246.5 C241.8224,246.5 244.8224,246.5 248.8224,242.5 C256.8224,242.5 264.8224,250.5 264.8224,258.5 L264.8224,262.5 C264.8224,266.5 260.8224,270.5 256.8224,270.5 L218.8224,270.5 C214.8224,270.5 210.8224,266.5 210.8224,262.5 L210.8224,258.5 C210.8224,250.5 218.8224,242.5 226.8224,242.5 C230.8224,246.5 233.8224,246.5 237.8224,246.5" fill="#F1F1F1" style="stroke:#181818;stroke-width:0.5;"/><text fill="#000000" font-family="sans-serif" font-size="14" lengthAdjust="spacing" textLength="107.8848" x="183.88" y="283.9951">University Staff</text></g><!--entity sa--><g class="entity" data-qualified-name="UserGroups.sa" data-source-line="11" id="ent0005"><ellipse cx="237.6964" cy="327" fill="#F1F1F1" rx="4.5" ry="4.5" style="stroke:#181818;stroke-width:0.5;"/><path d="M225.1964,333.5 L225.1964,338.5 L234.6964,338.5 L234.6964,340.7574 L225.1964,350.2574 L229.439,354.5 L237.6964,346.2426 L245.9538,354.5 L250.1964,350.2574 L240.6964,340.7574 L240.6964,338.5 L250.1964,338.5 L250.1964,333.5 L225.1964,333.5" fill="#F1F1F1" style="stroke:#181818;stroke-width:0.5;"/><text fill="#000000" font-family="sans-serif" font-size="14" lengthAdjust="spacing" textLength="159.6328" x="157.88" y="367.9951">System Administrators</text></g><!--entity UC1--><g class="entity" data-qualified-name="UsecaseGroups.UC1" data-source-line="16" id="ent0007"><ellipse cx="618.046" cy="150.5332" fill="#F1F1F1" rx="148.166" ry="32.0332" style="stroke:#181818;stroke-width:0.5;"/><text fill="#000000" font-family="sans-serif" font-size="14" lengthAdjust="spacing" textLength="256.7578" x="489.6671" y="149.7772">View Personal Academic Information</text><text fill="#000000" font-family="sans-serif" font-size="14" lengthAdjust="spacing" textLength="219.1738" x="508.4591" y="166.0741">(schedule, attendance, grades)</text></g><!--entity UC2--><g class="entity" data-qualified-name="UsecaseGroups.UC2" data-source-line="18" id="ent0008"><ellipse cx="617.7217" cy="248.6683" fill="#F1F1F1" rx="143.8417" ry="31.1683" style="stroke:#181818;stroke-width:0.5;"/><text fill="#000000" font-family="sans-serif" font-size="14" lengthAdjust="spacing" textLength="210.0547" x="512.6944" y="242.6975">Manage Academic Operations</text><text fill="#000000" font-family="sans-serif" font-size="14" lengthAdjust="spacing" textLength="245.417" x="495.0132" y="258.9944">(scheduling, enrollment, reporting)</text></g><!--entity UC3--><g class="entity" data-qualified-name="UsecaseGroups.UC3" data-source-line="20" id="ent0009"><ellipse cx="617.9777" cy="344.3195" fill="#F1F1F1" rx="137.0977" ry="29.8195" style="stroke:#181818;stroke-width:0.5;"/><text fill="#000000" font-family="sans-serif" font-size="14" lengthAdjust="spacing" textLength="132.5625" x="551.6965" y="333.8021">Administer System</text><text fill="#000000" font-family="sans-serif" font-size="14" lengthAdjust="spacing" textLength="251.6309" x="492.1623" y="350.0989">(user and permission management)</text></g><g class="entity" data-qualified-name="GMN10" data-source-line="24" id="ent0011"><path d="M65.88,6 L65.88,31.1328 L409.9122,31.1328 L409.9122,16 L399.9122,6 L65.88,6" fill="#FEFFDD" style="stroke:#181818;stroke-width:0.5;"/><path d="M399.9122,6 L399.9122,16 L409.9122,16 L399.9122,6" fill="#FEFFDD" style="stroke:#181818;stroke-width:1;"/><text fill="#000000" font-family="sans-serif" font-size="13" lengthAdjust="spacing" textLength="323.0322" x="71.88" y="23.0669">High-level categories of default user type groups.</text></g><g class="entity" data-qualified-name="GMN13" data-source-line="28" id="ent0014"><path d="M471.38,26 L471.38,51.1328 L764.2501,51.1328 L764.2501,36 L754.2501,26 L471.38,26" fill="#FEFFDD" style="stroke:#181818;stroke-width:0.5;"/><path d="M754.2501,26 L754.2501,36 L764.2501,36 L754.2501,26" fill="#FEFFDD" style="stroke:#181818;stroke-width:1;"/><text fill="#000000" font-family="sans-serif" font-size="13" lengthAdjust="spacing" textLength="271.8701" x="477.38" y="43.0669">High-level functional areas of the system.</text></g><!--link UserGroups to GMN10--><g class="link" data-entity-1="ent0002" data-entity-2="ent0011" data-link-type="association" data-source-line="24" id="lnk12"><path d="M196.3099,414.5199 C196.0291,414.5586 195.7473,414.5971 195.4646,414.6355 C190.9406,415.2489 186.1704,415.8174 181.2134,416.3045 C171.2994,417.2786 160.6381,417.9269 149.705,417.9575 C105.9725,418.08 57.89,408.32 35.88,370 C6,317.97 6,152.03 35.88,100 C57.59,62.21 100.69,41.92 141.53,31.05" fill="none" id="UserGroups-GMN10" style="stroke:#181818;stroke-width:1;stroke-dasharray:7,7;"/></g><!--link UsecaseGroups to GMN13--><g class="link" data-entity-1="ent0006" data-entity-2="ent0014" data-link-type="association" data-source-line="28" id="lnk15"><path d="M582.0145,417.5058 C580.8977,417.7074 579.7624,417.9082 578.6098,418.1075 C576.3045,418.5059 573.9299,418.8983 571.495,419.2795 C566.6251,420.0417 561.5141,420.759 556.2345,421.3897 C545.6753,422.6513 534.4419,423.5672 523.115,423.8063 C477.8075,424.7625 431.005,414.89 419.88,373 C412.67,345.83 412.67,147.17 419.88,120 C422.18,111.34 422.97,108.2 429.88,102.5 C461.93,76.06 505.46,60.33 542.56,51.09" fill="none" id="UsecaseGroups-GMN13" style="stroke:#181818;stroke-width:1;stroke-dasharray:7,7;"/></g><!--link at to UC1--><g class="link" data-entity-1="ent0003" data-entity-2="ent0007" data-link-type="dependency" data-source-line="31" id="lnk16"><path d="M276.51,137.89 C321.98,139.58 395.1941,142.2882 465.7641,144.8982" fill="none" id="at-to-UC1" style="stroke:#181818;stroke-width:1;"/><polygon fill="#181818" points="471.76,145.12,462.914,140.7901,466.7634,144.9352,462.6183,148.7846,471.76,145.12" style="stroke:#181818;stroke-width:1;"/></g><!--link us to UC2--><g class="link" data-entity-1="ent0004" data-entity-2="ent0008" data-link-type="dependency" data-source-line="32" id="lnk17"><path d="M292.24,248.5 C339.35,248.5 404.23,248.5 467.75,248.5" fill="none" id="us-to-UC2" style="stroke:#181818;stroke-width:1;"/><polygon fill="#181818" points="473.75,248.5,464.75,244.5,468.75,248.5,464.75,252.5,473.75,248.5" style="stroke:#181818;stroke-width:1;"/></g><!--link sa to UC3--><g class="link" data-entity-1="ent0005" data-entity-2="ent0009" data-link-type="dependency" data-source-line="33" id="lnk18"><path d="M318.12,346.08 C365.21,345.83 420.2101,345.5419 474.7901,345.2519" fill="none" id="sa-to-UC3" style="stroke:#181818;stroke-width:1;"/><polygon fill="#181818" points="480.79,345.22,471.7689,341.2679,475.7901,345.2466,471.8114,349.2678,480.79,345.22" style="stroke:#181818;stroke-width:1;"/></g><?plantuml-src VP9FImCn4CNl-HH3JmgjO7iNYWVhGHHAFNaPixFRqFnPPcPRYlZTJNPRkugOqp2P_5xUIppL2fg0NRDLg1oJLPSY6DEYtM53i17Y1qvTA_1X3EI5LXF3PAbAiSAeCW4KG1rsPUTYYunXc5lhqHFWWIG56X_VHBSd5gT7M2lMTG_fv1_8AdcV3Z26h8-Y561P1HUTA6Fk3jSHD9y_J5WK-kcZ6vemUNLqW9TycHJHmz9YHS5PU8nrue0bZxTu9NPBLUTfcfqEncsk6yx3SjrBRkvlVu6VC1RrR-9pIzppv09qiPa2HSxc0aMT0bERM7FxJ9t_efxT4iFWFyFo9WF62h92S2Bb3KElNg1dqg9a4fCIl2VL523Le_Srg_m9PfxsvC6YKfFOaPIPYchil4AleiUMikzouiRa8A00_y9U4X-JwoxsNomdZKpOytLB8BsLCH4LPhEx4YkOJaxr78pWgLwOBm00?></g></svg>