<?plantuml 1.2026.1?><svg xmlns="http://www.w3.org/2000/svg" xmlns:xlink="http://www.w3.org/1999/xlink" contentStyleType="text/css" data-diagram-type="DESCRIPTION" height="1345px" preserveAspectRatio="none" style="width:1585px;height:1345px;background:#FFFFFF;" version="1.1" viewBox="0 0 1585 1345" width="1585px" zoomAndPan="magnify"><defs/><g><!--cluster Users--><g class="cluster" data-qualified-name="Users" data-source-line="3" id="ent0002"><path d="M310.63,70 L356.0636,70 A3.75,3.75 0 0 1 358.5636,72.5 L365.5636,92.2969 L1576.13,92.2969 A2.5,2.5 0 0 1 1578.63,94.7969 L1578.63,1335.5 A2.5,2.5 0 0 1 1576.13,1338 L310.63,1338 A2.5,2.5 0 0 1 308.13,1335.5 L308.13,72.5 A2.5,2.5 0 0 1 310.63,70" fill="none" style="stroke:#000000;stroke-width:1.5;"/><line style="stroke:#000000;stroke-width:1.5;" x1="308.13" x2="365.5636" y1="92.2969" y2="92.2969"/><text fill="#000000" font-family="sans-serif" font-size="14" font-weight="bold" lengthAdjust="spacing" textLength="44.4336" x="312.13" y="84.9951">Users</text></g><!--cluster Attendants--><g class="cluster" data-qualified-name="Users.Attendants" data-source-line="4" id="ent0003"><path d="M427.13,129 L516.2726,129 A3.75,3.75 0 0 1 518.7726,131.5 L525.7726,151.2969 L526.13,151.2969 A2.5,2.5 0 0 1 528.63,153.7969 L528.63,288.5 A2.5,2.5 0 0 1 526.13,291 L427.13,291 A2.5,2.5 0 0 1 424.63,288.5 L424.63,131.5 A2.5,2.5 0 0 1 427.13,129" fill="none" style="stroke:#000000;stroke-width:1.5;"/><line style="stroke:#000000;stroke-width:1.5;" x1="424.63" x2="525.7726" y1="151.2969" y2="151.2969"/><text fill="#000000" font-family="sans-serif" font-size="14" font-weight="bold" lengthAdjust="spacing" textLength="88.1426" x="428.63" y="143.9951">Attendants</text></g><!--cluster UniversityStaff--><g class="cluster" data-qualified-name="Users.UniversityStaff" data-source-line="11" id="ent0008"><path d="M350.63,331 L470.6437,331 A3.75,3.75 0 0 1 473.1437,333.5 L480.1437,353.2969 L1536.13,353.2969 A2.5,2.5 0 0 1 1538.63,355.7969 L1538.63,1027.5 A2.5,2.5 0 0 1 1536.13,1030 L350.63,1030 A2.5,2.5 0 0 1 348.13,1027.5 L348.13,333.5 A2.5,2.5 0 0 1 350.63,331" fill="none" style="stroke:#000000;stroke-width:1.5;"/><line style="stroke:#000000;stroke-width:1.5;" x1="348.13" x2="480.1437" y1="353.2969" y2="353.2969"/><text fill="#000000" font-family="sans-serif" font-size="14" font-weight="bold" lengthAdjust="spacing" textLength="119.0137" x="352.13" y="345.9951">UniversityStaff</text></g><!--cluster TeachingStaff--><g class="cluster" data-qualified-name="Users.UniversityStaff.TeachingStaff" data-source-line="12" id="ent0009"><path d="M390.63,398 L501.5792,398 A3.75,3.75 0 0 1 504.0792,400.5 L511.0792,420.2969 L561.63,420.2969 A2.5,2.5 0 0 1 564.13,422.7969 L564.13,671.5 A2.5,2.5 0 0 1 561.63,674 L390.63,674 A2.5,2.5 0 0 1 388.13,671.5 L388.13,400.5 A2.5,2.5 0 0 1 390.63,398" fill="none" style="stroke:#000000;stroke-width:1.5;"/><line style="stroke:#000000;stroke-width:1.5;" x1="388.13" x2="511.0792" y1="420.2969" y2="420.2969"/><text fill="#000000" font-family="sans-serif" font-size="14" font-weight="bold" lengthAdjust="spacing" textLength="109.9492" x="392.13" y="412.9951">TeachingStaff</text></g><!--cluster AdministrativeStaff--><g class="cluster" data-qualified-name="Users.UniversityStaff.AdministrativeStaff" data-source-line="18" id="ent0015"><path d="M411.13,714 L567.0323,714 A3.75,3.75 0 0 1 569.5323,716.5 L576.5323,736.2969 L1312.13,736.2969 A2.5,2.5 0 0 1 1314.63,738.7969 L1314.63,987.5 A2.5,2.5 0 0 1 1312.13,990 L411.13,990 A2.5,2.5 0 0 1 408.63,987.5 L408.63,716.5 A2.5,2.5 0 0 1 411.13,714" fill="none" style="stroke:#000000;stroke-width:1.5;"/><line style="stroke:#000000;stroke-width:1.5;" x1="408.63" x2="576.5323" y1="736.2969" y2="736.2969"/><text fill="#000000" font-family="sans-serif" font-size="14" font-weight="bold" lengthAdjust="spacing" textLength="154.9023" x="412.63" y="728.9951">AdministrativeStaff</text></g><!--cluster SystemAmdinistrators--><g class="cluster" data-qualified-name="Users.SystemAmdinistrators" data-source-line="31" id="ent0026"><path d="M383.13,1070 L560.381,1070 A3.75,3.75 0 0 1 562.881,1072.5 L569.881,1092.2969 L570.13,1092.2969 A2.5,2.5 0 0 1 572.63,1094.7969 L572.63,1287.5 A2.5,2.5 0 0 1 570.13,1290 L383.13,1290 A2.5,2.5 0 0 1 380.63,1287.5 L380.63,1072.5 A2.5,2.5 0 0 1 383.13,1070" fill="none" style="stroke:#000000;stroke-width:1.5;"/><line style="stroke:#000000;stroke-width:1.5;" x1="380.63" x2="569.881" y1="1092.2969" y2="1092.2969"/><text fill="#000000" font-family="sans-serif" font-size="14" font-weight="bold" lengthAdjust="spacing" textLength="176.251" x="384.63" y="1084.9951">SystemAmdinistrators</text></g><g class="entity" data-qualified-name="Users.GMN5" data-source-line="8" id="ent0006"><path d="M951.63,221.5 L951.63,246.6328 L1508.3087,246.6328 L1508.3087,231.5 L1498.3087,221.5 L951.63,221.5" fill="#FEFFDD" style="stroke:#181818;stroke-width:0.5;"/><path d="M1498.3087,221.5 L1498.3087,231.5 L1508.3087,231.5 L1498.3087,221.5" fill="#FEFFDD" style="stroke:#181818;stroke-width:1;"/><text fill="#000000" font-family="sans-serif" font-size="13" lengthAdjust="spacing" textLength="535.6787" x="957.63" y="238.5669">Anyone who takes classes (full-time students, extenshion schools attendants etc.)</text></g><g class="entity" data-qualified-name="Users.GMN23" data-source-line="27" id="ent0024"><path d="M1109.63,281.5 L1109.63,306.6328 L1350.7159,306.6328 L1350.7159,291.5 L1340.7159,281.5 L1109.63,281.5" fill="#FEFFDD" style="stroke:#181818;stroke-width:0.5;"/><path d="M1340.7159,281.5 L1340.7159,291.5 L1350.7159,291.5 L1340.7159,281.5" fill="#FEFFDD" style="stroke:#181818;stroke-width:1;"/><text fill="#000000" font-family="sans-serif" font-size="13" lengthAdjust="spacing" textLength="220.0859" x="1115.63" y="298.5669">Everyone who works at university</text></g><g class="entity" data-qualified-name="Users.GMN29" data-source-line="36" id="ent0030"><path d="M985.13,1269.5 L985.13,1294.6328 L1474.7394,1294.6328 L1474.7394,1279.5 L1464.7394,1269.5 L985.13,1269.5" fill="#FEFFDD" style="stroke:#181818;stroke-width:0.5;"/><path d="M1464.7394,1269.5 L1464.7394,1279.5 L1474.7394,1279.5 L1464.7394,1269.5" fill="#FEFFDD" style="stroke:#181818;stroke-width:1;"/><text fill="#000000" font-family="sans-serif" font-size="13" lengthAdjust="spacing" textLength="468.6094" x="991.13" y="1286.5669">Technical administration of the platform. Not nesessary university staff.</text></g><!--entity Student--><g class="entity" data-qualified-name="Users.Attendants.Student" data-source-line="5" id="ent0004"><ellipse cx="476.1857" cy="180.5" fill="#F1F1F1" rx="8" ry="8" style="stroke:#181818;stroke-width:0.5;"/><path d="M476.1857,188.5 L476.1857,215.5 M463.1857,196.5 L489.1857,196.5 M476.1857,215.5 L463.1857,230.5 M476.1857,215.5 L489.1857,230.5" fill="none" style="stroke:#181818;stroke-width:0.5;"/><text fill="#000000" font-family="sans-serif" font-size="14" lengthAdjust="spacing" textLength="55.1113" x="448.63" y="244.9951">Student</text></g><g class="entity" data-qualified-name="Users.UniversityStaff.GMN12" data-source-line="16" id="ent0013"><path d="M1108.13,604.5 L1108.13,629.6328 L1351.7169,629.6328 L1351.7169,614.5 L1341.7169,604.5 L1108.13,604.5" fill="#FEFFDD" style="stroke:#181818;stroke-width:0.5;"/><path d="M1341.7169,604.5 L1341.7169,614.5 L1351.7169,614.5 L1341.7169,604.5" fill="#FEFFDD" style="stroke:#181818;stroke-width:1;"/><text fill="#000000" font-family="sans-serif" font-size="13" lengthAdjust="spacing" textLength="222.5869" x="1114.13" y="621.5669">Everyone who teches themselves.</text></g><g class="entity" data-qualified-name="Users.UniversityStaff.GMN20" data-source-line="24" id="ent0021"><path d="M945.63,664.5 L945.63,689.6328 L1514.1407,689.6328 L1514.1407,674.5 L1504.1407,664.5 L945.63,664.5" fill="#FEFFDD" style="stroke:#181818;stroke-width:0.5;"/><path d="M1504.1407,664.5 L1504.1407,674.5 L1514.1407,674.5 L1504.1407,664.5" fill="#FEFFDD" style="stroke:#181818;stroke-width:1;"/><text fill="#000000" font-family="sans-serif" font-size="13" lengthAdjust="spacing" textLength="547.5107" x="951.63" y="681.5669">Everyone who works at university but doesn't nesessarily have toteach themselves.</text></g><!--entity Lecturer--><g class="entity" data-qualified-name="Users.UniversityStaff.TeachingStaff.Lecturer" data-source-line="13" id="ent0010"><ellipse cx="475.9288" cy="458" fill="#F1F1F1" rx="16" ry="16" style="stroke:#181818;stroke-width:0.5;"/><path d="M475.9288,478 C479.9288,478 482.9288,478 486.9288,474 C494.9288,474 502.9288,482 502.9288,490 L502.9288,494 C502.9288,498 498.9288,502 494.9288,502 L456.9288,502 C452.9288,502 448.9288,498 448.9288,494 L448.9288,490 C448.9288,482 456.9288,474 464.9288,474 C468.9288,478 471.9288,478 475.9288,478" fill="#F1F1F1" style="stroke:#181818;stroke-width:0.5;"/><text fill="#000000" font-family="sans-serif" font-size="14" lengthAdjust="spacing" textLength="58.5977" x="446.63" y="515.4951">Lecturer</text></g><!--entity TeachingAssistant--><g class="entity" data-qualified-name="Users.UniversityStaff.TeachingStaff.TeachingAssistant" data-source-line="14" id="ent0011"><ellipse cx="476.0016" cy="570" fill="#F1F1F1" rx="16" ry="16" style="stroke:#181818;stroke-width:0.5;"/><path d="M476.0016,590 C480.0016,590 483.0016,590 487.0016,586 C495.0016,586 503.0016,594 503.0016,602 L503.0016,606 C503.0016,610 499.0016,614 495.0016,614 L457.0016,614 C453.0016,614 449.0016,610 449.0016,606 L449.0016,602 C449.0016,594 457.0016,586 465.0016,586 C469.0016,590 472.0016,590 476.0016,590" fill="#F1F1F1" style="stroke:#181818;stroke-width:0.5;"/><text fill="#000000" font-family="sans-serif" font-size="14" lengthAdjust="spacing" textLength="127.7432" x="412.13" y="627.4951">TeachingAssistant</text></g><!--entity Principal--><g class="entity" data-qualified-name="Users.UniversityStaff.AdministrativeStaff.Principal" data-source-line="19" id="ent0016"><ellipse cx="476.0817" cy="905" fill="#F1F1F1" rx="16" ry="16" style="stroke:#181818;stroke-width:0.5;"/><path d="M476.0817,925 C480.0817,925 483.0817,925 487.0817,921 C495.0817,921 503.0817,929 503.0817,937 L503.0817,941 C503.0817,945 499.0817,949 495.0817,949 L457.0817,949 C453.0817,949 449.0817,945 449.0817,941 L449.0817,937 C449.0817,929 457.0817,921 465.0817,921 C469.0817,925 472.0817,925 476.0817,925" fill="#F1F1F1" style="stroke:#181818;stroke-width:0.5;"/><text fill="#000000" font-family="sans-serif" font-size="14" lengthAdjust="spacing" textLength="59.9033" x="446.13" y="962.4951">Principal</text></g><!--entity FacultyHead--><g class="entity" data-qualified-name="Users.UniversityStaff.AdministrativeStaff.FacultyHead" data-source-line="20" id="ent0017"><ellipse cx="476.3663" cy="793" fill="#F1F1F1" rx="16" ry="16" style="stroke:#181818;stroke-width:0.5;"/><path d="M476.3663,813 C480.3663,813 483.3663,813 487.3663,809 C495.3663,809 503.3663,817 503.3663,825 L503.3663,829 C503.3663,833 499.3663,837 495.3663,837 L457.3663,837 C453.3663,837 449.3663,833 449.3663,829 L449.3663,825 C449.3663,817 457.3663,809 465.3663,809 C469.3663,813 472.3663,813 476.3663,813" fill="#F1F1F1" style="stroke:#181818;stroke-width:0.5;"/><text fill="#000000" font-family="sans-serif" font-size="14" lengthAdjust="spacing" textLength="87.4727" x="432.63" y="850.4951">FacultyHead</text></g><!--entity DepartmentHead--><g class="entity" data-qualified-name="Users.UniversityStaff.AdministrativeStaff.DepartmentHead" data-source-line="21" id="ent0018"><ellipse cx="1230.2921" cy="905" fill="#F1F1F1" rx="16" ry="16" style="stroke:#181818;stroke-width:0.5;"/><path d="M1230.2921,925 C1234.2921,925 1237.2921,925 1241.2921,921 C1249.2921,921 1257.2921,929 1257.2921,937 L1257.2921,941 C1257.2921,945 1253.2921,949 1249.2921,949 L1211.2921,949 C1207.2921,949 1203.2921,945 1203.2921,941 L1203.2921,937 C1203.2921,929 1211.2921,921 1219.2921,921 C1223.2921,925 1226.2921,925 1230.2921,925" fill="#F1F1F1" style="stroke:#181818;stroke-width:0.5;"/><text fill="#000000" font-family="sans-serif" font-size="14" lengthAdjust="spacing" textLength="121.3242" x="1169.63" y="962.4951">DepartmentHead</text></g><!--entity FacultyStaff--><g class="entity" data-qualified-name="Users.UniversityStaff.AdministrativeStaff.FacultyStaff" data-source-line="22" id="ent0019"><ellipse cx="1229.9694" cy="793" fill="#F1F1F1" rx="16" ry="16" style="stroke:#181818;stroke-width:0.5;"/><path d="M1229.9694,813 C1233.9694,813 1236.9694,813 1240.9694,809 C1248.9694,809 1256.9694,817 1256.9694,825 L1256.9694,829 C1256.9694,833 1252.9694,837 1248.9694,837 L1210.9694,837 C1206.9694,837 1202.9694,833 1202.9694,829 L1202.9694,825 C1202.9694,817 1210.9694,809 1218.9694,809 C1222.9694,813 1225.9694,813 1229.9694,813" fill="#F1F1F1" style="stroke:#181818;stroke-width:0.5;"/><text fill="#000000" font-family="sans-serif" font-size="14" lengthAdjust="spacing" textLength="83.6787" x="1188.13" y="850.4951">FacultyStaff</text></g><!--entity Admin--><g class="entity" data-qualified-name="Users.SystemAmdinistrators.Admin" data-source-line="32" id="ent0027"><ellipse cx="476.0621" cy="1118.5" fill="#F1F1F1" rx="4.5" ry="4.5" style="stroke:#181818;stroke-width:0.5;"/><path d="M463.5621,1125 L463.5621,1130 L473.0621,1130 L473.0621,1132.2574 L463.5621,1141.7574 L467.8048,1146 L476.0621,1137.7426 L484.3195,1146 L488.5621,1141.7574 L479.0621,1132.2574 L479.0621,1130 L488.5621,1130 L488.5621,1125 L463.5621,1125" fill="#F1F1F1" style="stroke:#181818;stroke-width:0.5;"/><text fill="#000000" font-family="sans-serif" font-size="14" lengthAdjust="spacing" textLength="44.8643" x="453.63" y="1159.4951">Admin</text></g><!--entity Root--><g class="entity" data-qualified-name="Users.SystemAmdinistrators.Root" data-source-line="33" id="ent0028"><ellipse cx="476.3038" cy="1202.5" fill="#F1F1F1" rx="4.5" ry="4.5" style="stroke:#181818;stroke-width:0.5;"/><path d="M463.8038,1209 L463.8038,1214 L473.3038,1214 L473.3038,1216.2574 L463.8038,1225.7574 L468.0465,1230 L476.3038,1221.7426 L484.5612,1230 L488.8038,1225.7574 L479.3038,1216.2574 L479.3038,1214 L488.8038,1214 L488.8038,1209 L463.8038,1209" fill="#F1F1F1" style="stroke:#181818;stroke-width:0.5;"/><text fill="#000000" font-family="sans-serif" font-size="14" lengthAdjust="spacing" textLength="32.3477" x="460.13" y="1243.4951">Root</text></g><g class="entity" data-qualified-name="GMN32" data-source-line="40" id="ent0033"><path d="M66.63,6 L66.63,46.2656 L886.0065,46.2656 L886.0065,16 L876.0065,6 L66.63,6" fill="#FEFFDD" style="stroke:#181818;stroke-width:0.5;"/><path d="M876.0065,6 L876.0065,16 L886.0065,16 L876.0065,6" fill="#FEFFDD" style="stroke:#181818;stroke-width:1;"/><text fill="#000000" font-family="sans-serif" font-size="13" lengthAdjust="spacing" textLength="794.2441" x="72.63" y="23.0669">These user groups are predefined by the system, and use cases are based on the rights given to these groups by default.</text><text fill="#000000" font-family="sans-serif" font-size="13" lengthAdjust="spacing" textLength="393.5864" x="72.63" y="38.1997">However, custom groups with custom rights can be created.</text></g><!--link Attendants to GMN5--><g class="link" data-entity-1="ent0003" data-entity-2="ent0006" data-link-type="association" data-source-line="8" id="lnk7"><path d="M529.8692,281.2285 C530.2947,281.2134 530.7224,281.1982 531.1522,281.1829 C532.0118,281.1523 532.8799,281.1213 533.7566,281.09 C535.5099,281.0273 537.297,280.9631 539.117,280.8974 C546.3971,280.6347 554.203,280.3479 562.4711,280.0374 C579.0074,279.4165 597.3928,278.7009 617.1188,277.8938 C696.0225,274.665 796.375,269.97 885.63,264 C956.56,259.26 1035.6,252.46 1099.96,246.53" fill="none" id="Attendants-GMN5" style="stroke:#181818;stroke-width:1;stroke-dasharray:7,7;"/></g><!--link TeachingStaff to GMN12--><g class="link" data-entity-1="ent0009" data-entity-2="ent0013" data-link-type="association" data-source-line="16" id="lnk14"><path d="M565.5932,662.9199 C566.6411,662.8803 567.696,662.8404 568.7579,662.8001 C570.8817,662.7196 573.0335,662.6375 575.2121,662.554 C579.5694,662.387 584.0343,662.2141 588.5988,662.0354 C597.7279,661.678 607.2558,661.2973 617.1188,660.8938 C696.0225,657.665 796.375,652.97 885.63,647 C959.55,642.06 1042.27,634.88 1108.01,628.79" fill="none" id="TeachingStaff-GMN12" style="stroke:#181818;stroke-width:1;stroke-dasharray:7,7;"/></g><!--link AdministrativeStaff to GMN20--><g class="link" data-entity-1="ent0015" data-entity-2="ent0021" data-link-type="association" data-source-line="24" id="lnk22"><path d="M794.7187,736.2687 C827.7085,733.4609 864.3702,708.0437 897.4758,705.2262 C963.6869,699.5913 1028.0375,694.115 1082.16,689.51" fill="none" id="AdministrativeStaff-GMN20" style="stroke:#181818;stroke-width:1;stroke-dasharray:7,7;"/></g><!--link UniversityStaff to GMN23--><g class="link" data-entity-1="ent0008" data-entity-2="ent0024" data-link-type="association" data-source-line="27" id="lnk25"><path d="M796.8606,353.0831 C799.0144,352.8998 804.3994,330.1446 806.5577,329.9609 C810.8741,329.5935 815.1989,329.2255 819.5297,328.8569 C854.1758,325.9082 889.2055,322.927 923.4295,320.0142 C991.8775,314.1888 1057.1025,308.6375 1109.59,304.17" fill="none" id="UniversityStaff-GMN23" style="stroke:#181818;stroke-width:1;stroke-dasharray:7,7;"/></g><!--link SystemAmdinistrators to GMN29--><g class="link" data-entity-1="ent0026" data-entity-2="ent0030" data-link-type="association" data-source-line="36" id="lnk31"><path d="M574.3275,1282 C574.9542,1282 575.5832,1282 576.2145,1282 C578.7398,1282 581.3026,1282 583.9014,1282 C604.6919,1282 627.7919,1282 652.53,1282 C751.4825,1282 876.645,1282 985.05,1282" fill="none" id="SystemAmdinistrators-GMN29" style="stroke:#181818;stroke-width:1;stroke-dasharray:7,7;"/></g><!--link Users to GMN32--><g class="link" data-entity-1="ent0002" data-entity-2="ent0033" data-link-type="association" data-source-line="40" id="lnk34"><path d="M307.4981,1337.423 C306.7243,1337.4255 305.9496,1337.4274 305.174,1337.4289 C292.7645,1337.4519 280.1294,1337.345 267.435,1337.0725 C165.88,1334.8925 60.535,1322.115 36.63,1280.5 C6,1227.17 6,226.83 36.63,173.5 C76.57,103.97 151.98,66.22 229.21,46.04" fill="none" id="Users-GMN32" style="stroke:#181818;stroke-width:1;stroke-dasharray:7,7;"/></g><?plantuml-src XLJBZjim3BpxAtZhBf3c0t8Bq1Ov54NHx7u08zEn45aqH3gkKUo_btBivh59rnVR8ZaSZaOAL2aeG_BxMg7qYPnwZaNHeZlWdk1LA0dyAS2UUMsjIh74g7CWF-YK4sorAodgkFfMZA_8IXC-LnUrArZ7WID1NpCe7aZ01HInzrFLXV1PVKCW9q1P0FssIgcD7OYhcOC0decGkkNpgQ4SV6mnONFYjDKX461FmWrTpV4Q_T6cypfi5QlgOfWvuuNGrJxkR-FdWR-RO5sYT2Sq5wz5l2XEgfoKcR-knRbgjuAlnkwi4BdQfD6Q6g5m95aMx-YkoyP7wvLGRRB7f7yc7vrlCTo9VKFN1HqsXEMTw1SoPRMn7NcGC9MFlJ-SzmxVcwbxJeUypz3zsolOTUPK9ecV52APNmIJ3mFKU2JpicOHhtHwQCOR0tpSk_YFmpOS0lTmvR3j84hDkYddCJczFpEZ2ZThlvWL7XE_Xxio-xWwUeS1y49OEozMONf06r0hJiqIVl1Pkk5IMyawcBFUYh7XZbMvoVLFuqNm3CMBkP2Wip_O9-vQKoWPTAAIAX-fXDqmDfEHuW8mbZaR7EQJdNDtzbM2qSffuqW2UsCGyqMa8_o4R526YcQe9HGRxibeBi1raabDERtNUbwQm1n6s5d7HAXKMgbT4gE0nLy0?></g></svg>