<?plantuml 1.2026.1?><svg xmlns="http://www.w3.org/2000/svg" xmlns:xlink="http://www.w3.org/1999/xlink" contentStyleType="text/css" data-diagram-type="DESCRIPTION" height="977px" preserveAspectRatio="none" style="width:1158px;height:977px;background:#FFFFFF;" version="1.1" viewBox="0 0 1158 977" width="1158px" zoomAndPan="magnify"><defs/><g><!--cluster usecases--><g class="cluster" data-qualified-name="usecases" data-source-line="3" id="ent0002"><path d="M78.31,55.5 L151.0121,55.5 A3.75,3.75 0 0 1 153.5121,58 L160.5121,77.7969 L1148.81,77.7969 A2.5,2.5 0 0 1 1151.31,80.2969 L1151.31,968 A2.5,2.5 0 0 1 1148.81,970.5 L78.31,970.5 A2.5,2.5 0 0 1 75.81,968 L75.81,58 A2.5,2.5 0 0 1 78.31,55.5" fill="none" style="stroke:#000000;stroke-width:1.5;"/><line style="stroke:#000000;stroke-width:1.5;" x1="75.81" x2="160.5121" y1="77.7969" y2="77.7969"/><text fill="#000000" font-family="sans-serif" font-size="14" font-weight="bold" lengthAdjust="spacing" textLength="71.7021" x="79.81" y="70.4951">usecases</text></g><!--cluster AcademicStructureManagement--><g class="cluster" data-qualified-name="usecases.AcademicStructureManagement" data-source-line="5" id="ent0003"><path d="M139.81,106.5 L394.6489,106.5 A3.75,3.75 0 0 1 397.1489,109 L404.1489,128.7969 L640.31,128.7969 A2.5,2.5 0 0 1 642.81,131.2969 L642.81,260 A2.5,2.5 0 0 1 640.31,262.5 L139.81,262.5 A2.5,2.5 0 0 1 137.31,260 L137.31,109 A2.5,2.5 0 0 1 139.81,106.5" fill="none" style="stroke:#000000;stroke-width:1.5;"/><line style="stroke:#000000;stroke-width:1.5;" x1="137.31" x2="404.1489" y1="128.7969" y2="128.7969"/><text fill="#000000" font-family="sans-serif" font-size="14" font-weight="bold" lengthAdjust="spacing" textLength="253.8389" x="141.31" y="121.4951">AcademicStructureManagement</text></g><!--cluster SchedulingManagement--><g class="cluster" data-qualified-name="usecases.SchedulingManagement" data-source-line="11" id="ent0007"><path d="M146.31,286.5 L337.7797,286.5 A3.75,3.75 0 0 1 340.2797,289 L347.2797,308.7969 L641.81,308.7969 A2.5,2.5 0 0 1 644.31,311.2969 L644.31,439 A2.5,2.5 0 0 1 641.81,441.5 L146.31,441.5 A2.5,2.5 0 0 1 143.81,439 L143.81,289 A2.5,2.5 0 0 1 146.31,286.5" fill="none" style="stroke:#000000;stroke-width:1.5;"/><line style="stroke:#000000;stroke-width:1.5;" x1="143.81" x2="347.2797" y1="308.7969" y2="308.7969"/><text fill="#000000" font-family="sans-serif" font-size="14" font-weight="bold" lengthAdjust="spacing" textLength="190.4697" x="147.81" y="301.4951">SchedulingManagement</text></g><!--cluster AttendanceManagement--><g class="cluster" data-qualified-name="usecases.AttendanceManagement" data-source-line="17" id="ent0011"><path d="M674.81,106.5 L869.7729,106.5 A3.75,3.75 0 0 1 872.2729,109 L879.2729,128.7969 L1116.81,128.7969 A2.5,2.5 0 0 1 1119.31,131.2969 L1119.31,262 A2.5,2.5 0 0 1 1116.81,264.5 L674.81,264.5 A2.5,2.5 0 0 1 672.31,262 L672.31,109 A2.5,2.5 0 0 1 674.81,106.5" fill="none" style="stroke:#000000;stroke-width:1.5;"/><line style="stroke:#000000;stroke-width:1.5;" x1="672.31" x2="879.2729" y1="128.7969" y2="128.7969"/><text fill="#000000" font-family="sans-serif" font-size="14" font-weight="bold" lengthAdjust="spacing" textLength="193.9629" x="676.31" y="121.4951">AttendanceManagement</text></g><!--cluster EnrollmentManagement--><g class="cluster" data-qualified-name="usecases.EnrollmentManagement" data-source-line="23" id="ent0015"><path d="M135.81,465.5 L326.2543,465.5 A3.75,3.75 0 0 1 328.7543,468 L335.7543,487.7969 L335.81,487.7969 A2.5,2.5 0 0 1 338.31,490.2969 L338.31,619 A2.5,2.5 0 0 1 335.81,621.5 L135.81,621.5 A2.5,2.5 0 0 1 133.31,619 L133.31,468 A2.5,2.5 0 0 1 135.81,465.5" fill="none" style="stroke:#000000;stroke-width:1.5;"/><line style="stroke:#000000;stroke-width:1.5;" x1="133.31" x2="335.7543" y1="487.7969" y2="487.7969"/><text fill="#000000" font-family="sans-serif" font-size="14" font-weight="bold" lengthAdjust="spacing" textLength="189.4443" x="137.31" y="480.4951">EnrollmentManagement</text></g><!--cluster Reporting--><g class="cluster" data-qualified-name="usecases.Reporting" data-source-line="28" id="ent0018"><path d="M110.31,645.5 L189.6088,645.5 A3.75,3.75 0 0 1 192.1088,648 L199.1088,667.7969 L361.31,667.7969 A2.5,2.5 0 0 1 363.81,670.2969 L363.81,744 A2.5,2.5 0 0 1 361.31,746.5 L110.31,746.5 A2.5,2.5 0 0 1 107.81,744 L107.81,648 A2.5,2.5 0 0 1 110.31,645.5" fill="none" style="stroke:#000000;stroke-width:1.5;"/><line style="stroke:#000000;stroke-width:1.5;" x1="107.81" x2="199.1088" y1="667.7969" y2="667.7969"/><text fill="#000000" font-family="sans-serif" font-size="14" font-weight="bold" lengthAdjust="spacing" textLength="78.2988" x="111.81" y="660.4951">Reporting</text></g><!--cluster SystemAdministration--><g class="cluster" data-qualified-name="usecases.SystemAdministration" data-source-line="32" id="ent0020"><path d="M695.31,288.5 L872.0893,288.5 A3.75,3.75 0 0 1 874.5893,291 L881.5893,310.7969 L1111.81,310.7969 A2.5,2.5 0 0 1 1114.31,313.2969 L1114.31,431 A2.5,2.5 0 0 1 1111.81,433.5 L695.31,433.5 A2.5,2.5 0 0 1 692.81,431 L692.81,291 A2.5,2.5 0 0 1 695.31,288.5" fill="none" style="stroke:#000000;stroke-width:1.5;"/><line style="stroke:#000000;stroke-width:1.5;" x1="692.81" x2="881.5893" y1="310.7969" y2="310.7969"/><text fill="#000000" font-family="sans-serif" font-size="14" font-weight="bold" lengthAdjust="spacing" textLength="175.7793" x="696.81" y="303.4951">SystemAdministration</text></g><!--cluster SelfService--><g class="cluster" data-qualified-name="usecases.SelfService" data-source-line="38" id="ent0024"><path d="M131.81,770.5 L221.4789,770.5 A3.75,3.75 0 0 1 223.9789,773 L230.9789,792.7969 L339.81,792.7969 A2.5,2.5 0 0 1 342.31,795.2969 L342.31,928 A2.5,2.5 0 0 1 339.81,930.5 L131.81,930.5 A2.5,2.5 0 0 1 129.31,928 L129.31,773 A2.5,2.5 0 0 1 131.81,770.5" fill="none" style="stroke:#000000;stroke-width:1.5;"/><line style="stroke:#000000;stroke-width:1.5;" x1="129.31" x2="230.9789" y1="792.7969" y2="792.7969"/><text fill="#000000" font-family="sans-serif" font-size="14" font-weight="bold" lengthAdjust="spacing" textLength="88.6689" x="133.31" y="785.4951">SelfService</text></g><!--entity UC1--><g class="entity" data-qualified-name="usecases.AcademicStructureManagement.UC1" data-source-line="6" id="ent0004"><ellipse cx="235.8669" cy="230.4114" fill="#F1F1F1" rx="67.5569" ry="15.9114" style="stroke:#181818;stroke-width:0.5;"/><text fill="#000000" font-family="sans-serif" font-size="14" lengthAdjust="spacing" textLength="100.1533" x="185.7903" y="235.0598">Create Course</text></g><!--entity UC2--><g class="entity" data-qualified-name="usecases.AcademicStructureManagement.UC2" data-source-line="7" id="ent0005"><ellipse cx="235.5787" cy="160.3537" fill="#F1F1F1" rx="82.2687" ry="18.8537" style="stroke:#181818;stroke-width:0.5;"/><text fill="#000000" font-family="sans-serif" font-size="14" lengthAdjust="spacing" textLength="135.9941" x="167.5816" y="165.0022">Create Department</text></g><!--entity UC3--><g class="entity" data-qualified-name="usecases.AcademicStructureManagement.UC3" data-source-line="8" id="ent0006"><ellipse cx="551.0746" cy="228.4529" fill="#F1F1F1" rx="75.2646" ry="17.4529" style="stroke:#181818;stroke-width:0.5;"/><text fill="#000000" font-family="sans-serif" font-size="14" lengthAdjust="spacing" textLength="119.3691" x="491.39" y="233.1014">Manage Sections</text></g><!--entity UC4--><g class="entity" data-qualified-name="usecases.SchedulingManagement.UC4" data-source-line="12" id="ent0008"><ellipse cx="235.9266" cy="407.6233" fill="#F1F1F1" rx="76.1166" ry="17.6233" style="stroke:#181818;stroke-width:0.5;"/><text fill="#000000" font-family="sans-serif" font-size="14" lengthAdjust="spacing" textLength="121.4268" x="175.2132" y="412.2718">Create Timetable</text></g><!--entity UC5--><g class="entity" data-qualified-name="usecases.SchedulingManagement.UC5" data-source-line="13" id="ent0009"><ellipse cx="235.8003" cy="338.5981" fill="#F1F1F1" rx="70.9903" ry="16.5981" style="stroke:#181818;stroke-width:0.5;"/><text fill="#000000" font-family="sans-serif" font-size="14" lengthAdjust="spacing" textLength="108.8623" x="181.3691" y="343.2465">Assign Lecturer</text></g><!--entity UC6--><g class="entity" data-qualified-name="usecases.SchedulingManagement.UC6" data-source-line="14" id="ent0010"><ellipse cx="551.3402" cy="407.306" fill="#F1F1F1" rx="77.0302" ry="17.806" style="stroke:#181818;stroke-width:0.5;"/><text fill="#000000" font-family="sans-serif" font-size="14" lengthAdjust="spacing" textLength="123.6211" x="489.5296" y="411.9545">Assign Classroom</text></g><!--entity UC7--><g class="entity" data-qualified-name="usecases.AttendanceManagement.UC7" data-source-line="18" id="ent0012"><ellipse cx="769.8908" cy="229.7162" fill="#F1F1F1" rx="81.5808" ry="18.7162" style="stroke:#181818;stroke-width:0.5;"/><text fill="#000000" font-family="sans-serif" font-size="14" lengthAdjust="spacing" textLength="134.3877" x="702.6969" y="234.3646">Record Attendance</text></g><!--entity UC8--><g class="entity" data-qualified-name="usecases.AttendanceManagement.UC8" data-source-line="19" id="ent0013"><ellipse cx="769.6649" cy="158.371" fill="#F1F1F1" rx="72.3549" ry="16.871" style="stroke:#181818;stroke-width:0.5;"/><text fill="#000000" font-family="sans-serif" font-size="14" lengthAdjust="spacing" textLength="112.2529" x="713.5385" y="163.0194">Edit Attendance</text></g><!--entity UC9--><g class="entity" data-qualified-name="usecases.AttendanceManagement.UC9" data-source-line="20" id="ent0014"><ellipse cx="1007.1559" cy="226.5692" fill="#F1F1F1" rx="95.8459" ry="21.5692" style="stroke:#181818;stroke-width:0.5;"/><text fill="#000000" font-family="sans-serif" font-size="14" lengthAdjust="spacing" textLength="166.8584" x="923.7267" y="231.2176">View Attendance (Staff)</text></g><!--entity UC10--><g class="entity" data-qualified-name="usecases.EnrollmentManagement.UC10" data-source-line="24" id="ent0016"><ellipse cx="235.5678" cy="516.3516" fill="#F1F1F1" rx="67.2578" ry="15.8516" style="stroke:#181818;stroke-width:0.5;"/><text fill="#000000" font-family="sans-serif" font-size="14" lengthAdjust="spacing" textLength="99.3809" x="185.8774" y="521">Enroll Student</text></g><!--entity UC11--><g class="entity" data-qualified-name="usecases.EnrollmentManagement.UC11" data-source-line="25" id="ent0017"><ellipse cx="235.5807" cy="586.5541" fill="#F1F1F1" rx="83.2707" ry="19.0541" style="stroke:#181818;stroke-width:0.5;"/><text fill="#000000" font-family="sans-serif" font-size="14" lengthAdjust="spacing" textLength="138.3252" x="166.4181" y="591.2026">Remove Enrollment</text></g><!--entity UC12--><g class="entity" data-qualified-name="usecases.Reporting.UC12" data-source-line="29" id="ent0019"><ellipse cx="235.7251" cy="705.283" fill="#F1F1F1" rx="111.9151" ry="24.783" style="stroke:#181818;stroke-width:0.5;"/><text fill="#000000" font-family="sans-serif" font-size="14" lengthAdjust="spacing" textLength="202.0156" x="134.7173" y="709.9315">Generate Attendance Report</text></g><!--entity UC13--><g class="entity" data-qualified-name="usecases.SystemAdministration.UC13" data-source-line="33" id="ent0021"><ellipse cx="770.0331" cy="402.6446" fill="#F1F1F1" rx="61.2231" ry="14.6446" style="stroke:#181818;stroke-width:0.5;"/><text fill="#000000" font-family="sans-serif" font-size="14" lengthAdjust="spacing" textLength="83.1865" x="728.4398" y="407.2931">Create User</text></g><!--entity UC14--><g class="entity" data-qualified-name="usecases.SystemAdministration.UC14" data-source-line="34" id="ent0022"><ellipse cx="769.6285" cy="338.5236" fill="#F1F1F1" rx="60.3185" ry="14.5236" style="stroke:#181818;stroke-width:0.5;"/><text fill="#000000" font-family="sans-serif" font-size="14" lengthAdjust="spacing" textLength="81.0605" x="729.0982" y="343.1721">Assign Role</text></g><!--entity UC15--><g class="entity" data-qualified-name="usecases.SystemAdministration.UC15" data-source-line="35" id="ent0023"><ellipse cx="1007.3806" cy="396.6141" fill="#F1F1F1" rx="91.0706" ry="20.6141" style="stroke:#181818;stroke-width:0.5;"/><text fill="#000000" font-family="sans-serif" font-size="14" lengthAdjust="spacing" textLength="156.1602" x="929.3005" y="401.2626">Configure Permissions</text></g><!--entity UC16--><g class="entity" data-qualified-name="usecases.SelfService.UC16" data-source-line="39" id="ent0025"><ellipse cx="235.7083" cy="821.5797" fill="#F1F1F1" rx="68.3983" ry="16.0797" style="stroke:#181818;stroke-width:0.5;"/><text fill="#000000" font-family="sans-serif" font-size="14" lengthAdjust="spacing" textLength="102.3135" x="184.5516" y="826.2281">View Schedule</text></g><!--entity UC17--><g class="entity" data-qualified-name="usecases.SelfService.UC17" data-source-line="40" id="ent0026"><ellipse cx="235.6299" cy="893.464" fill="#F1F1F1" rx="90.3199" ry="20.464" style="stroke:#181818;stroke-width:0.5;"/><text fill="#000000" font-family="sans-serif" font-size="14" lengthAdjust="spacing" textLength="154.4648" x="158.3975" y="898.1124">View Own Attendance</text></g><g class="entity" data-qualified-name="GMN27" data-source-line="45" id="ent0028"><path d="M57.31,6 L57.31,31.1328 L414.5263,31.1328 L414.5263,16 L404.5263,6 L57.31,6" fill="#FEFFDD" style="stroke:#181818;stroke-width:0.5;"/><path d="M404.5263,6 L404.5263,16 L414.5263,16 L404.5263,6" fill="#FEFFDD" style="stroke:#181818;stroke-width:1;"/><text fill="#000000" font-family="sans-serif" font-size="13" lengthAdjust="spacing" textLength="336.2163" x="63.31" y="23.0669">The whole list of functions/use cases of the system.</text></g><!--link usecases to GMN27--><g class="link" data-entity-1="ent0002" data-entity-2="ent0028" data-link-type="association" data-source-line="45" id="lnk29"><path d="M74.9427,953.5329 C74.6201,953.3924 74.2982,953.2508 73.977,953.1081 C72.6924,952.5369 71.4194,951.9471 70.1592,951.3379 C67.6387,950.1196 65.1691,948.8241 62.7578,947.4474 C57.9353,944.694 53.3465,941.6156 49.0522,938.1791 C40.4638,931.3063 33.0538,923.0013 27.31,913 C6,875.91 6.19,180.2 27.31,143 C61.96,81.95 139.73,47.65 189.88,31.13" fill="none" id="usecases-GMN27" style="stroke:#181818;stroke-width:1;stroke-dasharray:7,7;"/></g><?plantuml-src XPD1KuCm48Nl_8eTJ_QYehRgaS6E5nsTKhsdOO6C9EaaYnsdutztARI5bYh7vSk-bxpT4ZC2ik1KNX2aog4aPKqGB8Ny53b2vL4AZnxM-reaHOfQoOHS9Qbo-28CrpKQOWpuQq_1MUnG449iA-Vn38I7zpWSH1vnAHpLFLhikeyr6f0q1dqBtGG_Ur-9B32jIcNoVmtDbKOIYtBhwRPFHTwhtC0pRgxdMcWy2CMbyDvPgrjgqhKK4Q59XP5_lD4CfNLf1sqRtVMnQQhe6BhlGnyALnq8pXCIMJPguOUkjQbnjYnhGwUjDGmaLANxOCAhG__QVdNxRRcmApV3fNN4sHngFA51LsVIiTt0spxNlP2_FQ6EKgsCyiG7UHfEXFpkTz65DuFPpUnk0iA34OYjoLJEwSCREgsOtqzTEEuvmZ9Bq7qfDhuUYACTovtGP81vNPdZRCCxbc4XO_ao2qjaDTWCphSxEO9WNY2i2hu5bFmQzT-iCis6N386pUvocHZqcwUx25W5wfw_?></g></svg>