<?plantuml 1.2026.1?><svg xmlns="http://www.w3.org/2000/svg" xmlns:xlink="http://www.w3.org/1999/xlink" contentStyleType="text/css" data-diagram-type="DESCRIPTION" height="330px" preserveAspectRatio="none" style="width:937px;height:330px;background:#FFFFFF;" version="1.1" viewBox="0 0 937 330" width="937px" zoomAndPan="magnify"><defs/><g><!--cluster Users--><g class="cluster" data-qualified-name="Users" data-source-line="3" id="ent0002"><path d="M183.6,103.5 L229.0336,103.5 A3.75,3.75 0 0 1 231.5336,106 L238.5336,125.7969 L361.6,125.7969 A2.5,2.5 0 0 1 364.1,128.2969 L364.1,265 A2.5,2.5 0 0 1 361.6,267.5 L183.6,267.5 A2.5,2.5 0 0 1 181.1,265 L181.1,106 A2.5,2.5 0 0 1 183.6,103.5" fill="none" style="stroke:#000000;stroke-width:1.5;"/><line style="stroke:#000000;stroke-width:1.5;" x1="181.1" x2="238.5336" y1="125.7969" y2="125.7969"/><text fill="#000000" font-family="sans-serif" font-size="14" font-weight="bold" lengthAdjust="spacing" textLength="44.4336" x="185.1" y="118.4951">Users</text></g><!--cluster SchedulingManagement--><g class="cluster" data-qualified-name="SchedulingManagement" data-source-line="15" id="ent0007"><path d="M641.1,55.5 L832.5697,55.5 A3.75,3.75 0 0 1 835.0697,58 L842.0697,77.7969 L842.1,77.7969 A2.5,2.5 0 0 1 844.6,80.2969 L844.6,314 A2.5,2.5 0 0 1 842.1,316.5 L641.1,316.5 A2.5,2.5 0 0 1 638.6,314 L638.6,58 A2.5,2.5 0 0 1 641.1,55.5" fill="none" style="stroke:#000000;stroke-width:1.5;"/><line style="stroke:#000000;stroke-width:1.5;" x1="638.6" x2="842.0697" y1="77.7969" y2="77.7969"/><text fill="#000000" font-family="sans-serif" font-size="14" font-weight="bold" lengthAdjust="spacing" textLength="190.4697" x="642.6" y="70.4951">SchedulingManagement</text></g><!--entity AdministrativeStaff--><g class="entity" data-qualified-name="Users.AdministrativeStaff" data-source-line="6" id="ent0003"><ellipse cx="272.581" cy="163.5" fill="#F1F1F1" rx="16" ry="16" style="stroke:#181818;stroke-width:0.5;"/><path d="M272.581,183.5 C276.581,183.5 279.581,183.5 283.581,179.5 C291.581,179.5 299.581,187.5 299.581,195.5 L299.581,199.5 C299.581,203.5 295.581,207.5 291.581,207.5 L253.581,207.5 C249.581,207.5 245.581,203.5 245.581,199.5 L245.581,195.5 C245.581,187.5 253.581,179.5 261.581,179.5 C265.581,183.5 268.581,183.5 272.581,183.5" fill="#F1F1F1" style="stroke:#181818;stroke-width:0.5;"/><text fill="#000000" font-family="sans-serif" font-size="14" lengthAdjust="spacing" textLength="134.9619" x="205.1" y="220.9951">AdministrativeStaff</text></g><!--entity UC4--><g class="entity" data-qualified-name="SchedulingManagement.UC4" data-source-line="16" id="ent0008"><ellipse cx="741.7166" cy="116.6233" fill="#F1F1F1" rx="76.1166" ry="17.6233" style="stroke:#181818;stroke-width:0.5;"/><text fill="#000000" font-family="sans-serif" font-size="14" lengthAdjust="spacing" textLength="121.4268" x="681.0032" y="121.2718">Create Timetable</text></g><!--entity UC5--><g class="entity" data-qualified-name="SchedulingManagement.UC5" data-source-line="17" id="ent0009"><ellipse cx="741.5903" cy="185.5981" fill="#F1F1F1" rx="70.9903" ry="16.5981" style="stroke:#181818;stroke-width:0.5;"/><text fill="#000000" font-family="sans-serif" font-size="14" lengthAdjust="spacing" textLength="108.8623" x="687.1591" y="190.2465">Assign Lecturer</text></g><!--entity UC6--><g class="entity" data-qualified-name="SchedulingManagement.UC6" data-source-line="18" id="ent0010"><ellipse cx="741.6302" cy="255.306" fill="#F1F1F1" rx="77.0302" ry="17.806" style="stroke:#181818;stroke-width:0.5;"/><text fill="#000000" font-family="sans-serif" font-size="14" lengthAdjust="spacing" textLength="123.6211" x="679.8196" y="259.9545">Assign Classroom</text></g><g class="entity" data-qualified-name="GMN4" data-source-line="10" id="ent0005"><path d="M52.6,39.5 L52.6,79.7656 L493.0595,79.7656 L493.0595,49.5 L483.0595,39.5 L52.6,39.5" fill="#FEFFDD" style="stroke:#181818;stroke-width:0.5;"/><path d="M483.0595,39.5 L483.0595,49.5 L493.0595,49.5 L483.0595,39.5" fill="#FEFFDD" style="stroke:#181818;stroke-width:1;"/><text fill="#000000" font-family="sans-serif" font-size="13" lengthAdjust="spacing" textLength="415.9365" x="58.6" y="56.5669">Full predefined list of use types is mentioned in 01-actors.puml.</text><text fill="#000000" font-family="sans-serif" font-size="13" lengthAdjust="spacing" textLength="419.4595" x="58.6" y="71.6997">Here some user groups may be generalised for visual simplicity.</text></g><g class="entity" data-qualified-name="GMN11" data-source-line="22" id="ent0012"><path d="M552.6,6 L552.6,31.1328 L930.9794,31.1328 L930.9794,16 L920.9794,6 L552.6,6" fill="#FEFFDD" style="stroke:#181818;stroke-width:0.5;"/><path d="M920.9794,6 L920.9794,16 L930.9794,16 L920.9794,6" fill="#FEFFDD" style="stroke:#181818;stroke-width:1;"/><text fill="#000000" font-family="sans-serif" font-size="13" lengthAdjust="spacing" textLength="357.3794" x="558.6" y="23.0669">Full list of usecases is mentioned in 02-usecases.puml.</text></g><!--link Users to GMN4--><g class="link" data-entity-1="ent0002" data-entity-2="ent0005" data-link-type="association" data-source-line="10" id="lnk6"><path d="M241.2357,267.526 C240.6572,267.6527 240.0724,267.7799 239.4814,267.9072 C238.2994,268.162 237.0925,268.4177 235.862,268.6736 C216.1741,272.7684 190.4306,276.9194 163.3513,278.0137 C109.1925,280.2025 49.69,270.165 22.6,223 C6,194.1 6,176.9 22.6,148 C42.21,113.86 76.6,92.66 113.72,79.55" fill="none" id="Users-GMN4" style="stroke:#181818;stroke-width:1;stroke-dasharray:7,7;"/></g><!--link SchedulingManagement to GMN11--><g class="link" data-entity-1="ent0007" data-entity-2="ent0012" data-link-type="association" data-source-line="22" id="lnk13"><path d="M704.4562,316.6408 C703.8877,316.7388 703.3144,316.8365 702.7364,316.9339 C700.4244,317.3231 698.0376,317.7062 695.584,318.078 C690.677,318.8217 685.503,319.5203 680.1266,320.1331 C669.3738,321.3587 657.8113,322.2409 645.955,322.4537 C598.53,323.305 546.405,313.445 522.6,272 C484.53,205.71 484.53,166.29 522.6,100 C544.17,62.45 585.83,42.04 627.08,31.01" fill="none" id="SchedulingManagement-GMN11" style="stroke:#181818;stroke-width:1;stroke-dasharray:7,7;"/></g><!--link AdministrativeStaff to UC4--><g class="link" data-entity-1="ent0003" data-entity-2="ent0008" data-link-type="dependency" data-source-line="26" id="lnk14"><path d="M340.51,175.61 C430.42,162.33 583.1645,139.7673 671.2545,126.7473" fill="none" id="AdministrativeStaff-to-UC4" style="stroke:#181818;stroke-width:1;"/><polygon fill="#181818" points="677.19,125.87,667.7019,123.2289,672.2437,126.6011,668.8716,131.1429,677.19,125.87" style="stroke:#181818;stroke-width:1;"/></g><!--link AdministrativeStaff to UC5--><g class="link" data-entity-1="ent0003" data-entity-2="ent0009" data-link-type="dependency" data-source-line="27" id="lnk15"><path d="M340.51,185.5 C428.15,185.5 575.13,185.5 664.38,185.5" fill="none" id="AdministrativeStaff-to-UC5" style="stroke:#181818;stroke-width:1;"/><polygon fill="#181818" points="670.38,185.5,661.38,181.5,665.38,185.5,661.38,189.5,670.38,185.5" style="stroke:#181818;stroke-width:1;"/></g><!--link AdministrativeStaff to UC6--><g class="link" data-entity-1="ent0003" data-entity-2="ent0010" data-link-type="dependency" data-source-line="28" id="lnk16"><path d="M340.51,195.53 C430.17,208.97 582.2762,231.7709 670.5062,244.9909" fill="none" id="AdministrativeStaff-to-UC6" style="stroke:#181818;stroke-width:1;"/><polygon fill="#181818" points="676.44,245.88,668.1321,240.5905,671.4952,245.1391,666.9466,248.5022,676.44,245.88" style="stroke:#181818;stroke-width:1;"/></g><?plantuml-src VLBBJiCm4BpxAqPSW4CgGBH7fAeIuW2dqW_O9fjqLJyYhrDK8VuTExGgY89ltfdTdHdRSfkG0g9qcuH68jT9WZUcftfB7MEb71NlnY0VtOhlAP83rId4PTfR1hsn1iSZOInZtZZneYbIaXql4xKjZFamFYJ6EgGK74ABgt7sDSpZO2two0stuhc1pRs5C2WZxNjMYCAnByeoB1utjzMuIYVzuEp4F75a51Mb9wABOUXp2-snPdJiEL8UcdlRB6ydEf25Ykkjr9Bs4yE-GL5dJiQNzOQRmOhlNiZdGjcVSoWkyuwQihQBHMJAbbx5SQArvGkGOhMu_ycQgqhdyPoZ7IB70sbwbhImf1f3S0VMBCVsAxTpqeunVikk33uJtLrrn0xXdSnVegegB8BtNzz0ozsSUywgUXYD_erD_y5cndm2?></g></svg>